<svg width="16" height="16" viewBox="0 0 16 16" fill="none" xmlns="http://www.w3.org/2000/svg">
<path d="M3.33333 1.33337H10.6667C11.1971 1.33337 11.7058 1.54409 12.0809 1.91916C12.456 2.29423 12.6667 2.80294 12.6667 3.33337V12.6667C12.6667 12.8435 12.5964 13.0131 12.4714 13.1381C12.3464 13.2631 12.1768 13.3334 12 13.3334H10" stroke="black" stroke-width="2" stroke-linecap="round" stroke-linejoin="round"/>
<path d="M8 8.00004V9.33337M3.33333 1.33337L8.392 2.34537C8.84533 2.43598 9.25328 2.68084 9.54644 3.0383C9.8396 3.39576 9.99988 3.84374 10 4.30604V13.8534C9.99994 13.952 9.97801 14.0493 9.9358 14.1384C9.89358 14.2275 9.83213 14.3061 9.75587 14.3686C9.67961 14.4311 9.59043 14.4759 9.49477 14.4998C9.39911 14.5237 9.29935 14.526 9.20267 14.5067L4.40533 13.548C4.10296 13.4876 3.83089 13.3242 3.63543 13.0857C3.43997 12.8473 3.33321 12.5484 3.33333 12.24V1.33337Z" stroke="black" stroke-width="2" stroke-linecap="round" stroke-linejoin="round"/>
</svg>
