<svg width="16" height="16" viewBox="0 0 16 16" fill="none" xmlns="http://www.w3.org/2000/svg">
<path d="M8 7.66671C7.55797 7.66671 7.13405 7.49111 6.82149 7.17855C6.50893 6.86599 6.33334 6.44207 6.33334 6.00004C6.33334 5.55801 6.50893 5.13409 6.82149 4.82153C7.13405 4.50897 7.55797 4.33337 8 4.33337C8.44203 4.33337 8.86595 4.50897 9.17851 4.82153C9.49107 5.13409 9.66667 5.55801 9.66667 6.00004C9.66667 6.21891 9.62356 6.43564 9.5398 6.63785C9.45604 6.84006 9.33328 7.02379 9.17851 7.17855C9.02375 7.33332 8.84002 7.45608 8.63781 7.53984C8.4356 7.6236 8.21887 7.66671 8 7.66671ZM8 1.33337C6.76233 1.33337 5.57534 1.82504 4.70017 2.70021C3.825 3.57538 3.33334 4.76236 3.33334 6.00004C3.33334 9.50004 8 14.6667 8 14.6667C8 14.6667 12.6667 9.50004 12.6667 6.00004C12.6667 4.76236 12.175 3.57538 11.2998 2.70021C10.4247 1.82504 9.23768 1.33337 8 1.33337Z" fill="black"/>
</svg>
