<svg width="16" height="16" viewBox="0 0 16 16" fill="none" xmlns="http://www.w3.org/2000/svg">
<path d="M13.75 1.75H2.25C1.97344 1.75 1.75 1.97344 1.75 2.25V13.75C1.75 14.0266 1.97344 14.25 2.25 14.25H13.75C14.0266 14.25 14.25 14.0266 14.25 13.75V2.25C14.25 1.97344 14.0266 1.75 13.75 1.75ZM10.2922 8.10156L6.44844 10.8828C6.36563 10.9422 6.25 10.8828 6.25 10.7812V10.0484C6.25 9.88906 6.32656 9.7375 6.45625 9.64375L8.72812 8L6.45625 6.35625C6.32656 6.2625 6.25 6.1125 6.25 5.95156V5.21875C6.25 5.11719 6.36563 5.05781 6.44844 5.11719L10.2922 7.89844C10.3609 7.94844 10.3609 8.05156 10.2922 8.10156Z" fill="#4860BE"/>
</svg>
