<svg width="16" height="16" viewBox="0 0 16 16" fill="none" xmlns="http://www.w3.org/2000/svg">
<path d="M6 14.6667H11.3333V13C12.94 11.9134 14 10.08 14 8.00004V2.66671C14 2.31309 13.8595 1.97395 13.6095 1.7239C13.3594 1.47385 13.0203 1.33337 12.6667 1.33337H10C9.64638 1.33337 9.30724 1.47385 9.05719 1.7239C8.80714 1.97395 8.66667 2.31309 8.66667 2.66671V8.00004H2C2 10.06 3.33333 12 6 13V14.6667ZM3.52667 9.33337H12.4733C12.286 9.96079 11.969 10.5419 11.543 11.0391C11.1169 11.5364 10.5913 11.9387 10 12.22V13.3334H7.33333V12.22C6 12 3.90667 10.6067 3.52667 9.33337ZM10 2.66671H12.6667V8.00004H10V2.66671ZM10.6667 3.33337V5.33337H12V3.33337H10.6667Z" fill="black"/>
</svg>
