<svg width="37" height="37" viewBox="0 0 37 37" fill="none" xmlns="http://www.w3.org/2000/svg">
<path d="M6.16666 29.2918V15.4168C6.16666 14.9286 6.27612 14.4661 6.49504 14.0293C6.71396 13.5925 7.01561 13.2328 7.4 12.9502L16.65 6.01266C17.1896 5.60155 17.8062 5.396 18.5 5.396C19.1937 5.396 19.8104 5.60155 20.35 6.01266L29.6 12.9502C29.9854 13.2328 30.2876 13.5925 30.5065 14.0293C30.7254 14.4661 30.8344 14.9286 30.8333 15.4168V29.2918C30.8333 30.1397 30.5312 30.8659 29.9268 31.4702C29.3225 32.0745 28.5969 32.3762 27.75 32.3752H23.125C22.6882 32.3752 22.3223 32.2272 22.0273 31.9312C21.7324 31.6352 21.5844 31.2693 21.5833 30.8335V23.1252C21.5833 22.6884 21.4353 22.3225 21.1393 22.0275C20.8433 21.7325 20.4774 21.5845 20.0417 21.5835H16.9583C16.5215 21.5835 16.1556 21.7315 15.8607 22.0275C15.5657 22.3235 15.4177 22.6894 15.4167 23.1252V30.8335C15.4167 31.2703 15.2687 31.6367 14.9727 31.9327C14.6767 32.2287 14.3108 32.3762 13.875 32.3752H9.25C8.40208 32.3752 7.67647 32.0735 7.07316 31.4702C6.46986 30.8669 6.16769 30.1408 6.16666 29.2918Z" fill="#979595"/>
</svg>
