<svg width="37" height="37" viewBox="0 0 37 37" fill="none" xmlns="http://www.w3.org/2000/svg">
<path d="M6.16669 29.2917V15.4167C6.16669 14.9285 6.27615 14.466 6.49506 14.0292C6.71398 13.5924 7.01563 13.2327 7.40002 12.95L16.65 6.01254C17.1896 5.60143 17.8063 5.39587 18.5 5.39587C19.1938 5.39587 19.8104 5.60143 20.35 6.01254L29.6 12.95C29.9854 13.2327 30.2876 13.5924 30.5065 14.0292C30.7254 14.466 30.8344 14.9285 30.8334 15.4167V29.2917C30.8334 30.1396 30.5312 30.8657 29.9269 31.4701C29.3225 32.0744 28.5969 32.3761 27.75 32.375H23.125C22.6882 32.375 22.3223 32.227 22.0274 31.931C21.7324 31.635 21.5844 31.2692 21.5834 30.8334V23.125C21.5834 22.6882 21.4354 22.3223 21.1394 22.0274C20.8434 21.7324 20.4775 21.5844 20.0417 21.5834H16.9584C16.5215 21.5834 16.1557 21.7314 15.8607 22.0274C15.5657 22.3234 15.4177 22.6893 15.4167 23.125V30.8334C15.4167 31.2702 15.2687 31.6366 14.9727 31.9326C14.6767 32.2286 14.3108 32.3761 13.875 32.375H9.25002C8.4021 32.375 7.67649 32.0734 7.07319 31.4701C6.46988 30.8668 6.16771 30.1407 6.16669 29.2917Z" fill="#4860BE"/>
</svg>
