<svg width="40" height="40" viewBox="0 0 40 40" fill="none" xmlns="http://www.w3.org/2000/svg">
<path d="M20 28.7916L13.0833 32.9583C12.7778 33.1527 12.4583 33.236 12.125 33.2083C11.7917 33.1805 11.5 33.0694 11.25 32.8749C11 32.6805 10.8056 32.4377 10.6667 32.1466C10.5278 31.8555 10.5 31.5288 10.5833 31.1666L12.4167 23.2916L6.29167 17.9999C6.01389 17.7499 5.84055 17.4649 5.77167 17.1449C5.70278 16.8249 5.72333 16.5127 5.83333 16.2083C5.94333 15.9038 6.11 15.6538 6.33333 15.4583C6.55667 15.2627 6.86222 15.1377 7.25 15.0833L15.3333 14.3749L18.4583 6.95825C18.5972 6.62492 18.8128 6.37492 19.105 6.20825C19.3972 6.04159 19.6956 5.95825 20 5.95825C20.3044 5.95825 20.6028 6.04159 20.895 6.20825C21.1872 6.37492 21.4028 6.62492 21.5417 6.95825L24.6667 14.3749L32.75 15.0833C33.1389 15.1388 33.4444 15.2638 33.6667 15.4583C33.8889 15.6527 34.0556 15.9027 34.1667 16.2083C34.2778 16.5138 34.2989 16.8266 34.23 17.1466C34.1611 17.4666 33.9872 17.751 33.7083 17.9999L27.5833 23.2916L29.4167 31.1666C29.5 31.5277 29.4722 31.8544 29.3333 32.1466C29.1944 32.4388 29 32.6816 28.75 32.8749C28.5 33.0683 28.2083 33.1794 27.875 33.2083C27.5417 33.2371 27.2222 33.1538 26.9167 32.9583L20 28.7916Z" fill="#D9D9D9"/>
</svg>
