<svg width="10" height="10" viewBox="0 0 10 10" fill="none" xmlns="http://www.w3.org/2000/svg">
<g clip-path="url(#clip0_360_58)">
<path fill-rule="evenodd" clip-rule="evenodd" d="M4.99998 9.16659C7.30123 9.16659 9.16665 7.30117 9.16665 4.99992C9.16665 2.69867 7.30123 0.833252 4.99998 0.833252C2.69873 0.833252 0.833313 2.69867 0.833313 4.99992C0.833313 7.30117 2.69873 9.16659 4.99998 9.16659ZM6.69415 3.30575C6.75267 3.36435 6.78554 3.44377 6.78554 3.52659C6.78554 3.6094 6.75267 3.68883 6.69415 3.74742L5.44165 4.99992L6.69373 6.252C6.74893 6.31124 6.77898 6.38959 6.77755 6.47055C6.77612 6.55151 6.74333 6.62876 6.68607 6.68601C6.62882 6.74327 6.55157 6.77606 6.47061 6.77749C6.38966 6.77892 6.3113 6.74887 6.25206 6.69367L4.99998 5.44242L3.7479 6.6945C3.71929 6.7252 3.68479 6.74983 3.64645 6.76691C3.60812 6.78399 3.56674 6.79318 3.52478 6.79392C3.48282 6.79466 3.44114 6.78694 3.40223 6.77122C3.36332 6.7555 3.32797 6.73211 3.2983 6.70244C3.26862 6.67276 3.24523 6.63741 3.22951 6.5985C3.21379 6.55959 3.20608 6.51791 3.20682 6.47595C3.20756 6.43399 3.21674 6.39261 3.23382 6.35428C3.2509 6.31594 3.27553 6.28144 3.30623 6.25284L4.55748 4.99992L3.30581 3.74784C3.27511 3.71923 3.25048 3.68473 3.2334 3.64639C3.21632 3.60806 3.20714 3.56668 3.2064 3.52472C3.20566 3.48276 3.21338 3.44108 3.2291 3.40217C3.24481 3.36326 3.26821 3.32791 3.29788 3.29824C3.32755 3.26856 3.3629 3.24517 3.40181 3.22945C3.44073 3.21373 3.4824 3.20602 3.52436 3.20676C3.56632 3.2075 3.6077 3.21668 3.64604 3.23376C3.68437 3.25084 3.71887 3.27547 3.74748 3.30617L4.99998 4.55742L6.25206 3.30534C6.31066 3.24681 6.39008 3.21394 6.4729 3.21394C6.55571 3.21394 6.63514 3.24681 6.69373 3.30534" fill="black"/>
</g>
<defs>
<clipPath id="clip0_360_58">
<rect width="10" height="10" fill="white"/>
</clipPath>
</defs>
</svg>
