<svg width="37" height="37" viewBox="0 0 37 37" fill="none" xmlns="http://www.w3.org/2000/svg">
<path d="M14.6458 24.6667C11.8451 24.6667 9.47508 23.6964 7.53567 21.756C5.59625 19.8156 4.62603 17.4455 4.625 14.6458C4.62397 11.8462 5.5942 9.47611 7.53567 7.53567C9.47714 5.59522 11.8472 4.625 14.6458 4.625C17.4445 4.625 19.815 5.59522 21.7575 7.53567C23.7 9.47611 24.6698 11.8462 24.6667 14.6458C24.6667 15.7764 24.4868 16.8427 24.1271 17.8448C23.7674 18.8469 23.2792 19.7333 22.6625 20.5042L31.2958 29.1375C31.5785 29.4201 31.7198 29.7799 31.7198 30.2167C31.7198 30.6535 31.5785 31.0132 31.2958 31.2958C31.0132 31.5785 30.6535 31.7198 30.2167 31.7198C29.7799 31.7198 29.4201 31.5785 29.1375 31.2958L20.5042 22.6625C19.7333 23.2792 18.8469 23.7674 17.8448 24.1271C16.8427 24.4868 15.7764 24.6667 14.6458 24.6667ZM14.6458 21.5833C16.5729 21.5833 18.2112 20.9091 19.5607 19.5607C20.9101 18.2122 21.5844 16.5739 21.5833 14.6458C21.5823 12.7177 20.9081 11.08 19.5607 9.73254C18.2133 8.38513 16.575 7.71039 14.6458 7.70833C12.7167 7.70628 11.0789 8.38101 9.73254 9.73254C8.38615 11.0841 7.71142 12.7218 7.70833 14.6458C7.70525 16.5698 8.37999 18.2081 9.73254 19.5607C11.0851 20.9132 12.7229 21.5874 14.6458 21.5833Z" fill="#4860BE"/>
</svg>
