<svg width="10" height="9" viewBox="0 0 10 9" fill="none" xmlns="http://www.w3.org/2000/svg">
<path d="M5.43403 1.53281C5.59375 1.40449 5.69445 1.20586 5.69445 0.984375C5.69445 0.595898 5.38368 0.28125 5 0.28125C4.61632 0.28125 4.30556 0.595898 4.30556 0.984375C4.30556 1.20586 4.40799 1.40449 4.56597 1.53281L3.37847 3.42422C3.20486 3.7002 2.83507 3.76875 2.57639 3.57187L1.5434 2.78965C1.62153 2.67715 1.66667 2.53828 1.66667 2.39062C1.66667 2.00215 1.3559 1.6875 0.972223 1.6875C0.588543 1.6875 0.277779 2.00215 0.277779 2.39062C0.277779 2.77383 0.581598 3.08672 0.958334 3.09375L1.52431 6.91699C1.6059 7.46719 2.07292 7.875 2.62327 7.875H7.37674C7.92708 7.875 8.3941 7.46719 8.4757 6.91699L9.04167 3.09375C9.4184 3.08672 9.72222 2.77383 9.72222 2.39062C9.72222 2.00215 9.41146 1.6875 9.02778 1.6875C8.6441 1.6875 8.33333 2.00215 8.33333 2.39062C8.33333 2.53828 8.37847 2.67715 8.4566 2.78965L7.42535 3.57363C7.16667 3.77051 6.79688 3.70195 6.62327 3.42598L5.43403 1.53281Z" fill="#4860BE"/>
</svg>
