<svg width="20" height="20" viewBox="0 0 20 20" fill="none" xmlns="http://www.w3.org/2000/svg">
<path d="M15 2.5C16.2117 2.5 17.0433 3.52917 17.525 4.57083C18.0008 5.60417 18.29 6.9525 18.3292 8.41167L18.3333 8.75V16.6667C18.3334 16.779 18.3108 16.8901 18.2669 16.9935C18.2229 17.0968 18.1585 17.1902 18.0776 17.268C17.9966 17.3459 17.9008 17.4065 17.7958 17.4464C17.6908 17.4863 17.5789 17.5045 17.4667 17.5L17.3633 17.4883L15 17.095L12.6367 17.4883C12.5366 17.505 12.4344 17.5033 12.335 17.4833L12.2367 17.4575L10 16.7117L7.76333 17.4575C7.64602 17.4966 7.52147 17.5091 7.39873 17.4941C7.27599 17.479 7.15813 17.4369 7.05369 17.3707C6.94926 17.3045 6.86087 17.2158 6.79494 17.1112C6.72901 17.0066 6.68718 16.8886 6.6725 16.7658L6.66667 16.6667V14.2275C6.22417 14.6858 5.67 15 5 15C3.78833 15 2.95667 13.9708 2.475 12.9292C1.96333 11.8167 1.66667 10.3383 1.66667 8.75C1.66667 7.16167 1.9625 5.68333 2.475 4.57083C2.93417 3.57583 3.71333 2.59333 4.8375 2.50667L5 2.5H15ZM15 4.16667H7.31833C7.39333 4.3 7.46195 4.43472 7.52417 4.57083C8.0375 5.68333 8.33333 7.16167 8.33333 8.75V15.5108L9.73667 15.0425C9.90761 14.9856 10.0924 14.9856 10.2633 15.0425L12.5675 15.8108L14.8633 15.4275C14.9544 15.4125 15.0456 15.4125 15.1367 15.4275L16.6667 15.6833V8.75C16.6667 7.34667 16.4025 6.11667 16.0108 5.26917C15.5875 4.35 15.1692 4.16667 15 4.16667ZM5 4.16667C4.83083 4.16667 4.4125 4.35 3.98917 5.26917C3.5975 6.11667 3.33333 7.34667 3.33333 8.75C3.33333 10.1533 3.5975 11.3833 3.98917 12.2308C4.4125 13.15 4.83083 13.3333 5 13.3333C5.16917 13.3333 5.5875 13.15 6.01083 12.2308C6.4025 11.3833 6.66667 10.1533 6.66667 8.75C6.66667 7.34667 6.4025 6.11667 6.01083 5.26917C5.5875 4.35 5.16917 4.16667 5 4.16667ZM5 7.08333C5.46 7.08333 5.83333 7.82917 5.83333 8.75C5.83333 9.67083 5.46 10.4167 5 10.4167C4.54 10.4167 4.16667 9.67083 4.16667 8.75C4.16667 7.82917 4.54 7.08333 5 7.08333Z" fill="black"/>
</svg>
